<svg xmlns="http://www.w3.org/2000/svg" width="71" height="70" viewBox="0 0 71 70">
  <g id="Group_37062" data-name="Group 37062" transform="translate(-175 -500)">
    <g id="Ellipse_349" data-name="Ellipse 349" transform="translate(178 503)" fill="#a4e3dc" stroke="#fff" stroke-width="3">
      <ellipse cx="32.5" cy="32" rx="32.5" ry="32" stroke="none"/>
      <ellipse cx="32.5" cy="32" rx="34" ry="33.5" fill="none"/>
    </g>
    <path id="Path_37183" data-name="Path 37183" d="M324.588,600.074a22.445,22.445,0,0,1-10.981-2.857.576.576,0,0,1-.294-.5v-1.922a11.228,11.228,0,0,1,6.069-10,8.565,8.565,0,1,1,10.421,0,11.227,11.227,0,0,1,6.07,10v1.912a.578.578,0,0,1-.3.5,22.534,22.534,0,0,1-10.99,2.865m-10.12-3.7a21.375,21.375,0,0,0,20.249-.01v-1.571a10.086,10.086,0,0,0-6.3-9.369.577.577,0,0,1-.074-1.032,7.419,7.419,0,1,0-7.493,0,.577.577,0,0,1-.074,1.032,10.086,10.086,0,0,0-6.3,9.369Zm20.827.331h0Z" transform="translate(-114.093 -50.436)" fill="#fff"/>
  </g>
</svg>
