<svg xmlns="http://www.w3.org/2000/svg" width="52" height="54.938" viewBox="0 0 52 54.938">
  <g id="Group_37069" data-name="Group 37069" transform="translate(-80 -1043.609)">
    <g id="Group_35937" data-name="Group 35937" transform="translate(2 2)">
      <path id="Path_37188" data-name="Path 37188" d="M-5682,1485.437l6.648-5.24,1.341-8.363,3.123-5.758,5.565,1.792,1.4,8.047-1.791,7.156,8.688,3,6.515,1.083-.767,17.186-5.748,8.172-10.154,1.791-10.921-2.807-3.9-2.558-7.6,1.724-6.2-6.323,1.283-14.82v-5.24l7.789-3.248Z" transform="translate(5777 -420)" fill="#1db8a9"/>
      <path id="thumbs-up" d="M49.791,21.634c-1.15-.424-7.388-1.194-11.42-1.647a61.485,61.485,0,0,0,.921-10.635,7.353,7.353,0,0,0-14.705,0c0,5.514-1.959,8.052-4.753,10.879A8.793,8.793,0,0,0,4,25.528V43.174A8.834,8.834,0,0,0,12.823,52,8.74,8.74,0,0,0,18.6,49.785l.553.568c2.823,2.165,10.785,4.585,17.2,4.585,5.526,0,7.67-.862,9.567-1.626l.929-.362a8.68,8.68,0,0,0,5.106-6.47l1.959-17.57a6.717,6.717,0,0,0-4.123-7.276ZM12.823,46.115a2.944,2.944,0,0,1-2.941-2.941V25.528a2.944,2.944,0,0,1,5.882,0V43.174A2.944,2.944,0,0,1,12.823,46.115Zm33.313-.441a2.905,2.905,0,0,1-1.3,1.753l-1.106.429c-1.6.644-2.988,1.2-7.376,1.2-5.629,0-12.111-2.215-13.623-3.37a4.087,4.087,0,0,1-1.082-2.512V28.528a6.461,6.461,0,0,1,2.079-3.859c2.685-2.688,6.744-6.747,6.744-15.317a1.471,1.471,0,0,1,2.941,0A58.43,58.43,0,0,1,32,21.978l-.873,4.106,3.885-.553c1.773.147,11.567,1.315,12.746,1.618a1.069,1.069,0,0,1,.326.95Z" transform="translate(76 1041.609)"/>
    </g>
    <g id="Group_35938" data-name="Group 35938">
      <path id="Path_37188-2" data-name="Path 37188" d="M-5682,1485.437l6.648-5.24,1.341-8.363,3.123-5.758,5.565,1.792,1.4,8.047-1.791,7.156,8.688,3,6.515,1.083-.767,17.186-5.748,8.172-10.154,1.791-10.921-2.807-3.9-2.558-7.6,1.724-6.2-6.323,1.283-14.82v-5.24l7.789-3.248Z" transform="translate(5777 -420)" fill="#a4e3dc"/>
      <path id="thumbs-up-2" data-name="thumbs-up" d="M49.791,21.634c-1.15-.424-7.388-1.194-11.42-1.647a61.485,61.485,0,0,0,.921-10.635,7.353,7.353,0,0,0-14.705,0c0,5.514-1.959,8.052-4.753,10.879A8.793,8.793,0,0,0,4,25.528V43.174A8.834,8.834,0,0,0,12.823,52,8.74,8.74,0,0,0,18.6,49.785l.553.568c2.823,2.165,10.785,4.585,17.2,4.585,5.526,0,7.67-.862,9.567-1.626l.929-.362a8.68,8.68,0,0,0,5.106-6.47l1.959-17.57a6.717,6.717,0,0,0-4.123-7.276ZM12.823,46.115a2.944,2.944,0,0,1-2.941-2.941V25.528a2.944,2.944,0,0,1,5.882,0V43.174A2.944,2.944,0,0,1,12.823,46.115Zm33.313-.441a2.905,2.905,0,0,1-1.3,1.753l-1.106.429c-1.6.644-2.988,1.2-7.376,1.2-5.629,0-12.111-2.215-13.623-3.37a4.087,4.087,0,0,1-1.082-2.512V28.528a6.461,6.461,0,0,1,2.079-3.859c2.685-2.688,6.744-6.747,6.744-15.317a1.471,1.471,0,0,1,2.941,0A58.43,58.43,0,0,1,32,21.978l-.873,4.106,3.885-.553c1.773.147,11.567,1.315,12.746,1.618a1.069,1.069,0,0,1,.326.95Z" transform="translate(76 1041.609)"/>
    </g>
  </g>
</svg>
