<svg xmlns="http://www.w3.org/2000/svg" width="58.841" height="56.3" viewBox="0 0 58.841 56.3">
  <g id="Group_35743" data-name="Group 35743" transform="translate(-474.105 -365.542)">
    <g id="Group_35502" data-name="Group 35502" transform="translate(474.105 365.542)">
      <g id="Group_35500" data-name="Group 35500" transform="translate(2.505 2.505)">
        <path id="Path_36889" data-name="Path 36889" d="M-2068.473,422.4l7.391-15.845,8.167,15.845,16.807,2.027-12.017,13.122,3.686,16.766-15.7-7.9-15.968,7.9,3.275-18.138-12.283-10.236Z" transform="translate(2088.728 -403.355)"/>
        <path id="star-shape" d="M58.247,22.785A2.813,2.813,0,0,0,55.828,20.9L39.823,18.566,32.65,4.023a2.813,2.813,0,0,0-5.063,0L20.413,18.538,4.408,20.9a2.771,2.771,0,0,0-1.575,4.726L14.45,36.878,11.637,52.855a2.811,2.811,0,0,0,4.079,3.01l14.4-7.511,14.346,7.539a2.616,2.616,0,0,0,1.294.338,2.828,2.828,0,0,0,2.785-3.347L45.73,36.906,57.347,25.654A2.813,2.813,0,0,0,58.247,22.785Zm-17.3,11.252a2.813,2.813,0,0,0-.816,2.5l2.025,11.786L31.581,42.7a2.813,2.813,0,0,0-2.644,0L18.36,48.327,20.385,36.54a2.813,2.813,0,0,0-.816-2.5L11.131,25.6l11.843-1.716a2.813,2.813,0,0,0,2.138-1.547l5.007-10.717,5.288,10.745a2.813,2.813,0,0,0,2.138,1.547l11.843,1.716Z" transform="translate(-2.006 -2.436)"/>
      </g>
      <g id="Group_35501" data-name="Group 35501" transform="translate(0 0)">
        <path id="Path_36889-2" data-name="Path 36889" d="M-2068.473,422.4l7.391-15.845,8.167,15.845,16.807,2.027-12.017,13.122,3.686,16.766-15.7-7.9-15.968,7.9,3.275-18.138-12.283-10.236Z" transform="translate(2088.728 -403.355)" fill="#f7d854"/>
        <path id="star-shape-2" data-name="star-shape" d="M58.247,22.785A2.813,2.813,0,0,0,55.828,20.9L39.823,18.566,32.65,4.023a2.813,2.813,0,0,0-5.063,0L20.413,18.538,4.408,20.9a2.771,2.771,0,0,0-1.575,4.726L14.45,36.878,11.637,52.855a2.811,2.811,0,0,0,4.079,3.01l14.4-7.511,14.346,7.539a2.616,2.616,0,0,0,1.294.338,2.828,2.828,0,0,0,2.785-3.347L45.73,36.906,57.347,25.654A2.813,2.813,0,0,0,58.247,22.785Zm-17.3,11.252a2.813,2.813,0,0,0-.816,2.5l2.025,11.786L31.581,42.7a2.813,2.813,0,0,0-2.644,0L18.36,48.327,20.385,36.54a2.813,2.813,0,0,0-.816-2.5L11.131,25.6l11.843-1.716a2.813,2.813,0,0,0,2.138-1.547l5.007-10.717,5.288,10.745a2.813,2.813,0,0,0,2.138,1.547l11.843,1.716Z" transform="translate(-2.006 -2.436)"/>
      </g>
    </g>
  </g>
</svg>
